<svg width="1440" height="1024" viewBox="0 0 1440 1024" fill="none" xmlns="http://www.w3.org/2000/svg">
<rect width="1440" height="1024" fill="white"/>
<rect x="17" y="267" width="337" height="329" fill="#51ADCF"/>
<rect x="86.5" y="298.5" width="191" height="60" fill="white" stroke="#A5ECD7" stroke-width="5"/>
<rect x="75.5" y="451.5" width="153" height="63" transform="rotate(-90 75.5 451.5)" fill="white" stroke="#A5ECD7" stroke-width="5"/>
<rect x="222.5" y="363.5" width="193" height="82" transform="rotate(90 222.5 363.5)" fill="white" stroke="#A5ECD7" stroke-width="5"/>
<path d="M437.509 481.032C440.965 474.888 445.573 470.184 451.333 466.92C457.285 463.656 463.525 462.024 470.053 462.024C477.349 462.024 486.469 463.656 497.413 466.92C508.549 470.184 515.749 472.104 519.013 472.68C522.277 473.064 525.925 473.256 529.957 473.256C540.325 473.256 547.909 471.048 552.709 466.632L561.349 471.24C552.709 484.104 541.093 490.536 526.501 490.536C521.125 490.536 510.949 488.616 495.973 484.776C481.189 480.936 472.261 479.016 469.189 479.016C460.357 479.016 452.677 481.224 446.149 485.64L437.509 481.032Z" fill="#A5ECD7"/>
<path d="M660.077 518.184C675.245 528.552 689.837 533.736 703.853 533.736C718.061 533.736 729.101 530.472 736.973 523.944C745.037 517.416 749.069 508.392 749.069 496.872C749.069 487.464 746.189 480.072 740.429 474.696C734.285 468.744 724.685 462.792 711.629 456.84C707.789 454.92 705.101 453.576 703.565 452.808C690.509 446.664 680.333 439.56 673.037 431.496C665.933 423.432 662.381 412.008 662.381 397.224C662.381 382.44 667.853 370.344 678.797 360.936C689.933 351.528 703.277 346.824 718.828 346.824C734.381 346.824 748.589 349.608 761.453 355.176L757.133 371.016C745.613 367.176 734.381 365.256 723.437 365.256C712.493 365.256 703.277 368.136 695.789 373.896C688.301 379.464 684.557 386.856 684.557 396.072C684.557 405.288 687.149 412.68 692.333 418.248C698.285 424.392 708.845 430.92 724.013 437.832C737.837 444.36 747.245 449.832 752.237 454.248C759.149 460.584 763.469 465.672 765.197 469.512C768.845 478.728 770.669 487.464 770.669 495.72C770.669 513.192 764.621 527.016 752.525 537.192C740.621 547.368 725.261 552.456 706.445 552.456C687.821 552.456 670.829 546.12 655.469 533.448L660.077 518.184ZM859.219 369V549H836.18L837.044 369H786.068L786.932 350.28H910.772L908.468 369H859.219ZM1009.9 534.312C1020.65 534.312 1029.87 531.816 1037.55 526.824C1045.42 521.64 1051.47 514.632 1055.69 505.8C1063.95 488.904 1068.08 468.264 1068.08 443.88C1068.08 414.504 1062.6 393.48 1051.66 380.808C1043.21 370.824 1030.73 365.832 1014.22 365.832C1003.85 365.832 994.732 368.232 986.86 373.032C979.18 377.832 973.132 384.36 968.716 392.616C960.268 408.936 956.044 428.52 956.044 451.368C956.044 506.664 973.996 534.312 1009.9 534.312ZM1007.31 552.456C994.636 552.456 983.212 550.056 973.036 545.256C962.86 540.456 954.892 533.448 949.132 524.232C938.38 506.76 933.004 482.472 933.004 451.368C933.004 410.088 944.812 380.136 968.428 361.512C980.908 351.72 996.172 346.824 1014.22 346.824C1041.68 346.824 1061.26 355.272 1072.97 372.168C1084.68 389.064 1090.54 413.064 1090.54 444.168C1090.54 481.608 1081.32 510.408 1062.89 530.568C1049.64 545.16 1031.12 552.456 1007.31 552.456ZM1143.11 352.584C1160.19 350.28 1177.76 349.128 1195.81 349.128C1214.05 349.128 1228.55 353.64 1239.3 362.664C1250.05 371.688 1255.43 384.36 1255.43 400.68C1255.43 428.52 1241.31 446.28 1213.09 453.96L1241.89 510.696C1246.5 520.104 1250.72 526.728 1254.56 530.568C1258.59 534.216 1263.39 536.04 1268.96 536.04L1269.83 549.864C1269.06 550.632 1265.22 551.016 1258.31 551.016C1251.59 551.016 1245.54 548.616 1240.16 543.816C1234.79 538.824 1229.51 531.144 1224.32 520.776L1192.07 457.416C1189.19 457.992 1185.83 458.28 1181.99 458.28H1164.13V549H1142.24L1143.11 352.584ZM1164.13 440.136H1182.56C1215.78 440.136 1232.39 427.368 1232.39 401.832C1232.39 379.368 1219.14 368.136 1192.64 368.136C1181.89 368.136 1172.39 368.712 1164.13 369.864V440.136ZM1329.24 504.648C1329.24 514.824 1328.66 523.368 1327.51 530.28H1407.29L1406.42 549H1306.77L1307.64 350.28H1407.29L1406.42 369H1328.95C1329.33 374.568 1329.53 383.112 1329.53 394.632L1329.24 432.36H1398.36V451.08H1329.24V504.648Z" fill="#51ADCF"/>
</svg>
